# xmcd
#
# Track frame offsets: 
#        150
#        17553
#        37737
#        49815
#        66391
#        80155
#        96532
#        116082
#        137457
#        154383
#        169850
#
# Disc length: 2498 seconds
#
# Revision: 0
# Processed by: cddbd v1.5.2PL0 Copyright (c) Steve Scherf et al.
# Submitted via: ExactAudioCopy v1.3
#
DISCID=9509c00b
DTITLE=George Strait - Here For A Good Time
DYEAR=2011
DGENRE=Country
TTITLE0=Love's Gonna Make it Alright
TTITLE1=Drinkin' Man
TTITLE2=Shame on Me
TTITLE3=Poison
TTITLE4=Here For a Good Time
TTITLE5=House Across The Bay
TTITLE6=Lone Star Blues
TTITLE7=A Showman's Life (W Faith Hill)
TTITLE8=Three Nails And A Cross
TTITLE9=Blue Marlin Blues
TTITLE10=I'll Always Remember You
EXTD=
EXTT0=
EXTT1=
EXTT2=
EXTT3=
EXTT4=
EXTT5=
EXTT6=
EXTT7=
EXTT8=
EXTT9=
EXTT10=
PLAYORDER=
